<svg width="96" height="96" fill="none" xmlns="http://www.w3.org/2000/svg"><path d="M.562 50.853c.04.04.095.081.142.115.677.393 1.361.779 2.024 1.144a.715.715 0 00.847-.115.404.404 0 00.128-.17.722.722 0 00-.284-.974c-.616-.345-1.266-.711-1.99-1.124a.698.698 0 00-.542-.081.726.726 0 00-.44.331.727.727 0 00.115.874zm4.55 2.478c.034.034.08.068.128.101l.054.027c.014.014.034.02.048.02.826.42 1.686.834 2.566 1.24.27.122.596.067.806-.142a.724.724 0 00-.21-1.158 112.65 112.65 0 01-2.566-1.24.701.701 0 00-.833.143.546.546 0 00-.122.176.71.71 0 00.129.833zm5.213 2.397a.643.643 0 00.23.149 60.3 60.3 0 002.695 1.07.733.733 0 00.751-.156.72.72 0 00-.25-1.185 90.028 90.028 0 01-2.647-1.05.711.711 0 00-.935.393.71.71 0 00.156.779zm5.376 2.004a.63.63 0 00.284.176c.975.325 1.875.602 2.77.86.25.074.52.006.703-.19a.737.737 0 00.183-.305c.108-.365-.129-.778-.494-.887a73.898 73.898 0 01-2.708-.84.737.737 0 00-.752.184.71.71 0 00.014 1.002zm5.51 1.598c.096.094.21.155.34.19.934.23 1.888.44 2.83.636.23.04.473-.028.643-.197a.678.678 0 00.203-.366.74.74 0 00-.562-.846 66.264 66.264 0 01-2.77-.63.71.71 0 00-.676.19.707.707 0 00-.19.339.696.696 0 00.183.684zm5.627 1.144a.67.67 0 00.393.203c.948.162 1.875.29 2.769.4l.095.013a.703.703 0 00.609-.217.69.69 0 00.19-.406.724.724 0 00-.623-.799 64.13 64.13 0 01-2.817-.406.725.725 0 00-.61.19.764.764 0 00-.209.399c-.04.23.04.46.203.623zm5.694.71c.122.123.284.19.447.204a72.63 72.63 0 002.898.19.724.724 0 00.534-.21.713.713 0 00.21-.481c.02-.373-.304-.725-.677-.745a65.395 65.395 0 01-2.81-.183l-.162-.013.014.013a.712.712 0 00-.657.657.71.71 0 00.203.569zm5.735.251c.135.136.318.21.507.21.962.013 1.937 0 2.898-.04a.725.725 0 00.48-.197.724.724 0 00.21-.535.732.732 0 00-.737-.697c-.962.027-1.91.04-2.844.04a.68.68 0 00-.508.21.671.671 0 00-.216.501c0 .19.074.373.21.508zm5.741-.19c.149.15.352.23.555.217a81.722 81.722 0 002.891-.264h.014a.712.712 0 00.426-.21.718.718 0 00.197-.575.735.735 0 00-.67-.643l.013-.014-.136.014c-.006.006-.02.006-.04.013a75.28 75.28 0 01-2.756.237c-.013 0-.02.007-.034.007h-.027a.754.754 0 00-.447.216.743.743 0 00-.196.549.71.71 0 00.21.453zm5.714-.609a.72.72 0 00.61.203 92.46 92.46 0 002.864-.467.707.707 0 00.365-.19.74.74 0 00.21-.643.741.741 0 00-.84-.582c-.914.17-1.868.325-2.802.46a.707.707 0 00-.407.204.708.708 0 00-.203.609c.02.156.088.291.203.406zm5.654-1.022c.169.17.42.244.656.196.928-.21 1.883-.433 2.824-.67l.08-.014-.006-.006a.84.84 0 00.264-.17.713.713 0 00.176-.677.728.728 0 00-.873-.521c-.9.223-1.828.447-2.776.65a.653.653 0 00-.359.21.687.687 0 00-.183.643.7.7 0 00.197.359zm5.565-1.408c.183.182.453.25.71.182.922-.27 1.856-.555 2.77-.846a.7.7 0 00.277-.17.738.738 0 00.183-.737.732.732 0 00-.9-.467c-.887.29-1.801.568-2.729.833a.735.735 0 00-.304.182.714.714 0 00-.183.711.717.717 0 00.176.312zm5.47-1.774a.72.72 0 00.752.169 86.45 86.45 0 002.715-1.022.71.71 0 00.4-.928c-.136-.366-.576-.548-.935-.406-.873.345-1.767.684-2.668 1.002a.722.722 0 00-.264 1.185zm5.35-2.113c.209.21.514.271.791.156A117.3 117.3 0 0075.2 53.29a.715.715 0 00.204-.149.725.725 0 00.142-.805.732.732 0 00-.772-.407l.054-.054-.237.115c-.007-.006-.013 0-.02.007-.86.4-1.727.792-2.58 1.158a.77.77 0 00-.243.162.714.714 0 00.013 1.002zm5.22-2.43a.7.7 0 00.791.142l.034-.007c.014-.013.027-.013.04-.027.82-.413 1.653-.84 2.526-1.32a.797.797 0 00.17-.129.71.71 0 00.121-.84.726.726 0 00-.975-.297 73.49 73.49 0 01-2.532 1.327.794.794 0 00-.17.128.722.722 0 00-.148.84c.04.068.088.129.142.183zm5.05-2.749c.23.23.589.277.873.115.84-.487 1.645-.982 2.478-1.503.048-.034.088-.06.122-.095a.718.718 0 00-.88-1.124c-.785.488-1.611.989-2.444 1.483a.6.6 0 00-.15.108.727.727 0 00-.114.874c.04.054.074.101.115.142zm4.875-3.074c.243.244.63.278.914.088 1.408-.961 2.234-1.598 2.383-1.72l.04-.027v-.013a.686.686 0 00.23-.447.755.755 0 00-.148-.528.728.728 0 00-1.01-.115l-.026.027a53.797 53.797 0 01-2.275 1.638.844.844 0 00-.115.088.735.735 0 00-.075.914c.02.034.055.068.082.095z" fill="#fff"/><path d="M87.932 52.732a.717.717 0 001.196-.307l2.624-8.968a.716.716 0 00-.603-.914l-9.06-1.084a.718.718 0 10-.17 1.426l8.216.983-2.386 8.155a.72.72 0 00.183.71z" fill="#fff"/></svg>