<svg width="96" height="96" fill="none" xmlns="http://www.w3.org/2000/svg"><path d="M.562 45.556c.04-.04.095-.081.142-.115a108.43 108.43 0 012.024-1.144.715.715 0 01.847.115.4.4 0 01.128.17.72.72 0 01-.284.974c-.616.346-1.266.711-1.99 1.124a.697.697 0 01-.542.081.726.726 0 01-.44-.331.727.727 0 01.115-.874zm4.55-2.478a1.02 1.02 0 01.128-.101l.054-.027a.073.073 0 01.048-.02c.826-.42 1.686-.833 2.566-1.24a.725.725 0 01.806.143.721.721 0 01-.21 1.157c-.867.407-1.727.82-2.566 1.24a.701.701 0 01-.833-.143.546.546 0 01-.122-.176.71.71 0 01.129-.833zm5.213-2.396a.643.643 0 01.23-.15 63.12 63.12 0 012.695-1.07.733.733 0 01.751.157.72.72 0 01-.25 1.185 89.42 89.42 0 00-2.647 1.049.71.71 0 01-.935-.393.71.71 0 01.156-.778zm5.376-2.005a.63.63 0 01.284-.175 69.085 69.085 0 012.77-.86.688.688 0 01.703.19.71.71 0 01.183.304c.108.365-.129.778-.494.887-.894.257-1.801.541-2.708.84a.737.737 0 01-.752-.184.71.71 0 01.014-1.002zm5.51-1.597a.733.733 0 01.34-.19 81.15 81.15 0 012.83-.636c.23-.04.473.027.643.196a.68.68 0 01.203.366.74.74 0 01-.562.846c-.935.19-1.869.406-2.77.63a.71.71 0 01-.676-.19.707.707 0 01-.19-.338.696.696 0 01.183-.684zm5.627-1.145a.67.67 0 01.393-.203 56.835 56.835 0 012.769-.4l.095-.013a.704.704 0 01.609.217.69.69 0 01.19.406.724.724 0 01-.623.8 64.77 64.77 0 00-2.817.405.726.726 0 01-.61-.19.709.709 0 01-.007-1.022zm5.694-.71a.717.717 0 01.447-.203 72.647 72.647 0 012.898-.19.724.724 0 01.534.21.713.713 0 01.21.48c.02.373-.304.725-.677.745-.934.04-1.875.102-2.81.183l-.162.014.014-.014a.712.712 0 01-.657-.657.71.71 0 01.203-.568zm5.735-.25a.717.717 0 01.507-.21c.962-.014 1.937 0 2.898.04.176 0 .345.074.48.196a.724.724 0 01.21.535.732.732 0 01-.737.697c-.962-.027-1.91-.04-2.844-.04a.68.68 0 01-.508-.21.671.671 0 01-.216-.501c0-.19.074-.373.21-.508zm5.74.189a.724.724 0 01.556-.217c.962.068 1.936.162 2.891.264h.014a.71.71 0 01.426.21.72.72 0 01.197.575.735.735 0 01-.67.644l.013.013-.136-.013c-.006-.007-.02-.007-.04-.014a75.342 75.342 0 00-2.756-.237c-.013 0-.02-.007-.034-.007h-.027a.755.755 0 01-.447-.216.711.711 0 01.014-1.002zm5.715.609a.72.72 0 01.61-.203c.92.135 1.875.291 2.863.467a.707.707 0 01.366.19c.17.169.25.413.21.643a.741.741 0 01-.84.582 73.208 73.208 0 00-2.803-.46.707.707 0 01-.406-.203.708.708 0 01-.203-.61.687.687 0 01.203-.406zm5.654 1.022a.733.733 0 01.656-.196c.928.21 1.882.433 2.824.67l.08.014-.006.007a.84.84 0 01.264.169.71.71 0 01.176.677.728.728 0 01-.873.521c-.9-.223-1.828-.447-2.776-.65a.652.652 0 01-.359-.21.687.687 0 01-.183-.643.7.7 0 01.197-.359zm5.565 1.409c.183-.183.453-.25.71-.183.921.27 1.856.555 2.77.846a.7.7 0 01.277.17c.19.189.265.48.183.737a.732.732 0 01-.9.468 72.06 72.06 0 00-2.729-.833.735.735 0 01-.304-.183.714.714 0 01-.183-.711.717.717 0 01.176-.311zm5.47 1.773a.72.72 0 01.752-.169c.887.318 1.794.657 2.715 1.023a.71.71 0 01.4.928c-.136.365-.576.547-.935.405a77.564 77.564 0 00-2.668-1.002.722.722 0 01-.264-1.185zm5.349 2.113a.717.717 0 01.792-.156c.853.366 1.747.772 2.647 1.185a.713.713 0 01.204.149c.21.21.264.535.142.806a.732.732 0 01-.772.406l.054.054-.237-.115c-.007.007-.014 0-.02-.007-.86-.4-1.727-.792-2.58-1.158a.767.767 0 01-.243-.162.714.714 0 01.013-1.002zm5.22 2.43a.703.703 0 01.792-.142l.034.007c.014.014.027.014.04.027.82.413 1.653.84 2.526 1.32a.8.8 0 01.17.129.71.71 0 01.121.84.726.726 0 01-.975.297 73.393 73.393 0 00-2.532-1.327.803.803 0 01-.17-.128.722.722 0 01-.148-.84.943.943 0 01.142-.183zm5.05 2.75a.727.727 0 01.874-.116c.84.488 1.645.982 2.478 1.503.048.034.088.061.122.095a.718.718 0 01-.88 1.124 137.77 137.77 0 00-2.444-1.483.601.601 0 01-.15-.108.727.727 0 01-.114-.874c.04-.054.074-.101.115-.142zm4.876 3.073a.728.728 0 01.914-.088c1.408.961 2.234 1.598 2.383 1.72l.04.027v.013c.129.115.21.264.23.447a.755.755 0 01-.148.528.728.728 0 01-1.01.115l-.026-.027a53.787 53.787 0 00-2.275-1.638.846.846 0 01-.115-.088.735.735 0 01-.075-.914c.02-.034.055-.068.082-.095z" fill="#fff"/><path d="M87.932 43.677a.717.717 0 011.196.307l2.624 8.968a.716.716 0 01-.603.914l-9.06 1.084a.718.718 0 11-.17-1.426l8.216-.983-2.386-8.154a.72.72 0 01.183-.71z" fill="#fff"/></svg>