<svg width="253" height="56" fill="none" xmlns="http://www.w3.org/2000/svg"><path d="M73.427 27.28l2.951 7.496h-5.943l2.992-7.496zm-2.534-7.754L59.882 46.019h6.096l2.195-5.565h10.48l2.196 5.565h6.474l-11.01-26.493h-5.42zm37.816 0l-5.147 8.517-5.367-8.517h-7.117l8.404 12.981L90.66 46.02h7.11l5.606-8.895 5.678 8.895h7.111l-8.816-13.512 8.477-12.981h-7.117zm43.256 0l-4.538 16.729-5.107-16.73h-6.096l-4.955 16.73-4.464-16.73h-6.853l7.834 26.494h5.791l5.446-17.034 5.526 17.034h5.79l7.456-26.493h-5.83zm16.006 13.246c0 2.269.749 4.18 2.235 5.718 1.486 1.54 3.29 2.309 5.413 2.309 2.421 0 4.305-.75 5.638-2.256 1.333-1.499 2.003-3.422 2.003-5.77 0-2.369-.729-4.306-2.195-5.791-1.466-1.486-3.284-2.236-5.453-2.236-2.222 0-4.046.737-5.486 2.216-1.432 1.479-2.155 3.416-2.155 5.81zm-6.435 0c0-3.906 1.307-7.17 3.921-9.784 2.613-2.613 5.996-3.913 10.162-3.913 4.112 0 7.489 1.247 10.122 3.748 2.64 2.494 3.953 5.817 3.953 9.956 0 3.987-1.326 7.263-3.993 9.837-2.66 2.574-6.023 3.86-10.082 3.86-4.113 0-7.489-1.246-10.123-3.747-2.64-2.5-3.96-5.817-3.96-9.957zm39.408 0c0 2.269.743 4.18 2.236 5.718 1.486 1.54 3.29 2.309 5.413 2.309 2.421 0 4.305-.75 5.638-2.256 1.333-1.499 2.003-3.422 2.003-5.77 0-2.369-.73-4.306-2.195-5.791-1.46-1.486-3.277-2.236-5.446-2.236-2.223 0-4.053.737-5.486 2.216-1.439 1.479-2.163 3.416-2.163 5.81zm-6.427 0c0-3.906 1.307-7.17 3.92-9.784 2.614-2.613 5.997-3.913 10.162-3.913 4.113 0 7.489 1.247 10.123 3.748 2.64 2.494 3.953 5.817 3.953 9.956 0 3.987-1.327 7.263-3.993 9.837-2.667 2.574-6.023 3.86-10.083 3.86-4.112 0-7.489-1.246-10.122-3.747-2.647-2.5-3.96-5.817-3.96-9.957zm42.698-7.681c-.982 0-1.731.04-2.235.113V40.34c.53.053 1.26.08 2.195.08 2.654 0 4.737-.69 6.262-2.063 1.526-1.373 2.289-3.31 2.289-5.811 0-2.368-.783-4.206-2.349-5.506-1.558-1.3-3.615-1.95-6.162-1.95zm-8.291 20.928V19.526h.53c.425 0 1.685-.02 3.781-.06 2.096-.04 3.443-.06 4.053-.06 4.995 0 8.723 1.24 11.184 3.708 2.461 2.475 3.688 5.612 3.688 9.426 0 3.914-1.32 7.15-3.954 9.705-2.64 2.56-6.374 3.84-11.223 3.84-.378 0-1.479-.013-3.29-.04-1.818-.026-3.191-.04-4.126-.04h-.643v.014zM48.396 17.609a6.563 6.563 0 00-1.346-1.48L29.332 1.61a7.107 7.107 0 00-9.008 0L2.607 16.13A7.055 7.055 0 00.02 21.145v.08c-.02.133-.02.272-.02.405v26.718c0 .133 0 .266.02.372.146 2.799 1.91 5.253 4.497 6.255a7.096 7.096 0 002.587.504H42.54a7.89 7.89 0 001.46-.146 7.103 7.103 0 005.591-6.162 5.44 5.44 0 00.053-.816V21.629a6.965 6.965 0 00-1.247-4.02zM23.721 41.767c-.12 0-.246.02-.359.066a1.05 1.05 0 00-.61.558c-.146.291-.16.603-.04.849 2.23 4.656 4.55 7.767 5.738 9.207a.494.494 0 01.073.55.525.525 0 01-.49.312h-4.724a.529.529 0 01-.444-.225c-1.977-2.767-3.847-5.745-4.133-8.79-.351-3.654 1.553-5.638 3.456-6.275 2.156-.77 5.2-.205 7.111 2.786l.053.08c1.745 2.673 6.063 9.154 8.438 11.595a.483.483 0 01.112.53.49.49 0 01-.464.306h-4.975a.51.51 0 01-.385-.16c-5.06-5.399-6.984-9.803-7.33-10.66a1.106 1.106 0 00-.556-.61.94.94 0 00-.471-.119zm.291-6.229c-.895 0-1.757.146-2.54.418-2.687.93-5.38 3.655-4.902 8.53.232 2.435 1.187 4.757 3.277 8a.56.56 0 01.013.558.492.492 0 01-.444.258h-4.1a.523.523 0 01-.391-.172.543.543 0 01-.126-.425c.245-2.063.08-4.252-.491-6.5-1.061-4.186-.59-8.08 1.28-10.68 1.592-2.222 4.106-3.635 7.078-3.986 6.082-.704 9.698 4.066 14.54 11.435 3.051 4.624 6.255 6.647 8.59 8.12a.592.592 0 01.259.457.515.515 0 01-.186.431c-1.294 1.088-3.045 1.287-3.741 1.32-.12.02-.246-.033-.365-.139-4.252-3.582-10.553-13.445-10.62-13.545-1.877-2.912-4.623-4.08-7.13-4.08zm-1.525-6.168c-3.609.398-6.68 2.129-8.67 4.875-2.235 3.13-2.826 7.681-1.612 12.497.544 2.17.67 4.232.372 6.143a.51.51 0 01-.518.417H8.073a.534.534 0 01-.418-.205c-.1-.126-.14-.292-.1-.438.524-2.043.684-4.332.471-6.8-.75-8.748 3.244-16.476 9.705-18.785 1.578-.557 4.006-1.207 6.779-1.207 4.829 0 10.686 1.984 14.812 9.89 1.512 2.893 4.1 6.574 7.88 7.735.173.046.292.232.292.45 0 1.142-.02 4.114-.053 4.677a.525.525 0 01-.285.438.518.518 0 01-.518-.04l-.086-.053c-2.321-1.525-4.948-3.257-7.522-7.17-6.023-9.18-9.837-13.147-16.543-12.424zM46.69 40.812c-1.777-.683-3.807-2.945-5.439-6.056C33.776 20.415 20.801 23.692 17 25.031 9.604 27.651 5.027 36.295 5.863 46.052c.192 2.335.033 4.444-.478 6.275a.491.491 0 01-.305.332.55.55 0 01-.497-.047c-1.5-.902-2.428-2.533-2.428-4.258v-8.77c0-2.215.53-4.377 1.539-6.254 3.044-5.745 8.902-12.73 19.508-13.38l.1-.006c.716-.033 1.4-.067 2.063-.067 12.39 0 16.304 7.018 19.156 12.146.85 1.525 2.979 5.83 2.979 6.951v1.082c0 .61-.133.79-.212.842-.133.086-.379 0-.598-.086zM25.273 13.748c-.06.014.04.007 0 0 7.164.007 14.076 3.29 20.404 9.751 1.174 1.207 1.817 2.773 1.817 4.418v4.49c0 .16-.259.233-.331.06l-.113-.225a26.295 26.295 0 00-.65-1.294c-2.972-5.326-7.383-13.246-21.074-13.246-.73 0-1.486.02-2.262.066-10.998.67-17.253 7.535-20.57 13.194-.06.106-.1.159-.172.159a.176.176 0 01-.173-.173v-3.927c0-1.233.53-2.447 1.453-3.316 3.88-3.682 11.92-9.87 21.67-9.957zm22.135 8.279c-.033.033-.126.033-.2-.047-6.745-6.905-14.2-10.407-21.975-10.407-10.388.072-18.766 6.394-22.772 10.142-.053.04-.1.066-.133.066-.073 0-.159-.04-.159-.086 0-.06 0-.12.02-.219.093-.982.405-2.355 1.366-3.317.14-.139.279-.265.418-.384l7.635-6.255a8.062 8.062 0 012.74-1.46c4.815-1.46 14.069-3.37 21.936.299.51.232 1.015.563 1.592 1.034l7.8 6.382c.385.318.71.676.97 1.074a4.85 4.85 0 01.848 2.78c.007.126-.013.325-.086.398zM31.475 6.55c-4.153-.796-8.783-.67-13.77.378-.074.014-.127-.006-.153-.066-.034-.073-.02-.18.073-.252l4.066-3.33a4.955 4.955 0 013.137-1.128c1.155 0 2.242.392 3.151 1.128l3.622 2.978c.06.06.166.166.152.22-.053.125-.272.072-.278.072z" fill="#fff"/></svg>