<svg width="16" height="16" fill="none" xmlns="http://www.w3.org/2000/svg"><g clip-path="url(#clip0_18_503)" fill="#fff"><path d="M13.302 2.692A7.451 7.451 0 008 .495c-2.003 0-3.887.78-5.303 2.197A7.45 7.45 0 00.499 7.995c0 2.003.78 3.887 2.197 5.303a7.451 7.451 0 005.303 2.197c2.003 0 3.887-.78 5.303-2.197A7.452 7.452 0 0015.5 7.995c0-2.003-.78-3.887-2.197-5.303zM8 13.576a5.587 5.587 0 01-5.58-5.581A5.587 5.587 0 018 2.415a5.587 5.587 0 015.58 5.58A5.587 5.587 0 018 13.575z"/><path d="M8 3.3a4.7 4.7 0 00-4.696 4.695A4.7 4.7 0 008 12.69a4.7 4.7 0 004.695-4.695A4.7 4.7 0 007.999 3.3zm3.188 5.138H7.999a.443.443 0 01-.443-.443V4.806a.443.443 0 01.886 0v2.746h2.746a.443.443 0 010 .886z"/></g><defs><clipPath id="clip0_18_503"><path fill="#fff" d="M0 0h16v16H0z"/></clipPath></defs></svg>